<svg viewBox="-5 -10 110 135" xmlns="http://www.w3.org/2000/svg">
    <path fill="currentColor" d="M40 45c8.285 0 15-6.715 15-15s-6.715-15-15-15-15 6.715-15 15 6.715 15 15 15zm0-25c5.516 0 10 4.484 10 10s-4.484 10-10 10-10-4.484-10-10 4.484-10 10-10zM47.5 50h-15C22.852 50 15 57.852 15 67.5v5c0 4.137 3.363 7.5 7.5 7.5h35c4.137 0 7.5-3.363 7.5-7.5v-5C65 57.852 57.148 50 47.5 50ZM60 72.5c0 1.379-1.125 2.5-2.5 2.5h-35a2.505 2.505 0 0 1-2.5-2.5v-5C20 60.61 25.605 55 32.5 55h15C54.395 55 60 60.61 60 67.5Z"/>
    <path d="M72.791 46.118c.08-.08.24-.24.32-.4l14.96-14.96a3.188 3.188 0 0 0 0-4.56 3.188 3.188 0 0 0-4.56 0l-12.96 13.12-4.48-4.48a3.188 3.188 0 0 0-4.56 0 3.188 3.188 0 0 0 0 4.56l6.8 6.8c.64.64 1.44.96 2.24.96.8-.08 1.6-.4 2.24-1.04z" style="stroke-width:.8"/>
</svg>
