<svg viewBox="-5 -10 110 135" xmlns="http://www.w3.org/2000/svg">
    <path fill="currentColor" d="M40 45c8.285 0 15-6.715 15-15s-6.715-15-15-15-15 6.715-15 15 6.715 15 15 15zm0-25c5.516 0 10 4.484 10 10s-4.484 10-10 10-10-4.484-10-10 4.484-10 10-10zM47.5 50h-15C22.852 50 15 57.852 15 67.5v5c0 4.137 3.363 7.5 7.5 7.5h35c4.137 0 7.5-3.363 7.5-7.5v-5C65 57.852 57.148 50 47.5 50ZM60 72.5c0 1.379-1.125 2.5-2.5 2.5h-35a2.505 2.505 0 0 1-2.5-2.5v-5C20 60.61 25.605 55 32.5 55h15C54.395 55 60 60.61 60 67.5ZM82.803 28.661 68.661 42.803a2.497 2.497 0 0 0 0 3.536 2.497 2.497 0 0 0 3.536 0l14.142-14.142a2.497 2.497 0 0 0 0-3.536 2.497 2.497 0 0 0-3.536 0z"/>
    <path fill="currentColor" d="M77.5 52.51c8.285 0 15-6.716 15-15 0-8.286-6.715-15-15-15-8.286 0-15 6.714-15 15 0 8.284 6.714 15 15 15zm0-25c5.515 0 10 4.483 10 10 0 5.515-4.485 10-10 10-5.516 0-10-4.485-10-10 0-5.517 4.484-10 10-10z"/>
</svg>
