<?xml version="1.0" encoding="UTF-8" standalone="no"?>
<svg
   version="1.1"
   viewBox="-5 -10 110 135"
   id="svg3"
   xmlns="http://www.w3.org/2000/svg"
   xmlns:svg="http://www.w3.org/2000/svg">
  <defs
     id="defs3" />
  <path
     fill="currentColor"
     d="m 40,45 c 8.2852,0 15,-6.7148 15,-15 0,-8.2852 -6.7148,-15 -15,-15 -8.2852,0 -15,6.7148 -15,15 0,8.2852 6.7148,15 15,15 z m 0,-25 c 5.5156,0 10,4.4844 10,10 0,5.5156 -4.4844,10 -10,10 -5.5156,0 -10,-4.4844 -10,-10 0,-5.5156 4.4844,-10 10,-10 z"
     id="path1" />
  <path
     fill="currentColor"
     d="m 47.5,50 h -15 C 22.8516,50 15,57.8516 15,67.5 v 5 c 0,4.1367 3.3633,7.5 7.5,7.5 h 35 c 4.1367,0 7.5,-3.3633 7.5,-7.5 v -5 C 65,57.8516 57.1484,50 47.5,50 Z M 60,72.5 c 0,1.3789 -1.125,2.5 -2.5,2.5 h -35 C 21.125,75 20,73.8789 20,72.5 v -5 C 20,60.6094 25.6055,55 32.5,55 h 15 C 54.3945,55 60,60.6094 60,67.5 Z"
     id="path2" />
  <path
     fill="currentColor"
     d="M 82.803301,28.661165 68.661165,42.803301 c -0.977787,0.977787 -0.977787,2.557747 0,3.535534 0.977787,0.977787 2.557747,0.977787 3.535534,0 L 86.338835,32.196699 c 0.977787,-0.977787 0.977787,-2.557747 0,-3.535534 -0.977787,-0.977787 -2.557747,-0.977787 -3.535534,0 z"
     id="path3" />
  <path
     fill="currentColor"
     d="m 77.499546,52.509066 c 8.2852,0 15,-6.7148 15,-15 0,-8.2852 -6.7148,-15 -15,-15 -8.2852,0 -15,6.7148 -15,15 0,8.2852 6.7148,15 15,15 z m 0,-25 c 5.5156,0 10,4.4844 10,10 0,5.5156 -4.4844,10 -10,10 -5.5156,0 -10,-4.4844 -10,-10 0,-5.5156 4.4844,-10 10,-10 z"
     id="path1-5" />
</svg>
