<?xml version="1.0" encoding="UTF-8" standalone="no"?>
<svg
   width="32"
   height="32"
   viewBox="0 0 32 32"
   version="1.1"
   id="svg1"
   xmlns="http://www.w3.org/2000/svg"
   xmlns:svg="http://www.w3.org/2000/svg"
   xmlns:rdf="http://www.w3.org/1999/02/22-rdf-syntax-ns#"
   xmlns:cc="http://creativecommons.org/ns#"
   xmlns:dc="http://purl.org/dc/elements/1.1/">
  <defs
     id="defs1" />
  <title
     id="title1">Iconly/Light-Outline/Profile</title>
  <g
     id="Iconly/Light-Outline/Profile"
     stroke="none"
     stroke-width="1"
     fill="none"
     fill-rule="evenodd">
    <g
       id="Profile"
       transform="translate(8.0801,6.0651)"
       fill="#000000">
      <path
         id="rect3"
         style="fill:#000000;stroke:#000000;stroke-width:0"
         d="M 0,0 V 32 H 32 V 0 Z m 16.001953,6.0644531 c 2.928,0 5.308594,2.3825469 5.308594,5.3105469 0,2.928 -2.380594,5.308594 -5.308594,5.308594 h -0.0332 c -2.922,-0.009 -5.289265,-2.3925 -5.279297,-5.3125 0,-2.9250002 2.3835,-5.3066409 5.3125,-5.3066409 z m 0,1.4277344 c -2.141,0 -3.884765,1.7418125 -3.884765,3.8828125 -0.007,2.134 1.723468,3.872859 3.855468,3.880859 v 0 h 0.0293 c 2.14,0 3.880859,-1.740859 3.880859,-3.880859 0,-2.141 -1.740859,-3.8828125 -3.880859,-3.8828125 z m 0.242188,11.0683595 c 2.165417,0.0053 7.675781,0.142458 7.675781,3.697265 0,3.296 -4.518969,3.677735 -7.917969,3.677735 h -0.244141 c -2.165559,-0.0053 -7.6777339,-0.142458 -7.6777339,-3.697266 0,-3.228735 4.3378059,-3.659514 7.7109379,-3.675781 z m -0.242188,1.5 c -4.261,0 -6.4218749,0.732734 -6.4218749,2.177734 0,1.458 2.1608749,2.197266 6.4218749,2.197266 4.26,0 6.417969,-0.732734 6.417969,-2.177735 0,-1.458 -2.157969,-2.197265 -6.417969,-2.197265 z"
         transform="translate(-8.0801,-6.0651)" />
    </g>
  </g>
  <metadata
     id="metadata1">
    <rdf:RDF>
      <cc:Work
         rdf:about="">
        <dc:title>Iconly/Light-Outline/Profile</dc:title>
      </cc:Work>
    </rdf:RDF>
  </metadata>
</svg>
