<svg width="32" height="32" xmlns="http://www.w3.org/2000/svg">
    <path style="fill:#000;stroke:#000;stroke-width:0" d="M0 0v32h32V0Zm16.002 6.064a5.315 5.315 0 0 1 5.309 5.311 5.314 5.314 0 0 1-5.309 5.309h-.033a5.3 5.3 0 0 1-5.28-5.313 5.316 5.316 0 0 1 5.313-5.307zm0 1.428a3.889 3.889 0 0 0-3.885 3.883 3.873 3.873 0 0 0 3.856 3.88h.029c2.14 0 3.88-1.74 3.88-3.88a3.886 3.886 0 0 0-3.88-3.883zm.242 11.069c2.166.005 7.676.142 7.676 3.697 0 3.296-4.519 3.678-7.918 3.678h-.244c-2.166-.006-7.678-.143-7.678-3.698 0-3.228 4.338-3.66 7.711-3.675zm-.242 1.5c-4.261 0-6.422.732-6.422 2.177 0 1.458 2.161 2.198 6.422 2.198 4.26 0 6.418-.733 6.418-2.178 0-1.458-2.158-2.197-6.418-2.197z" fill="#000" fill-rule="evenodd"/>
</svg>
