<svg xmlns="http://www.w3.org/2000/svg" viewBox="0 0 100 125" xml:space="preserve">
    <path d="M93.2 25.9v-.1c0-8-6.5-14.5-14.5-14.5H21.3c-8 0-14.5 6.5-14.5 14.5v.1c0 5 2.5 9.4 6.4 12-3.8 2.6-6.4 7-6.4 12v.1c0 5 2.5 9.4 6.4 12-3.8 2.6-6.4 7-6.4 12v.1c0 8 6.5 14.5 14.5 14.5h57.3c8 0 14.5-6.5 14.5-14.5V74c0-5-2.5-9.4-6.4-12 3.8-2.6 6.4-7 6.4-12v-.1c0-5-2.5-9.4-6.4-12 3.9-2.6 6.5-7 6.5-12zm-5 48.2v.1c0 5.2-4.3 9.5-9.5 9.5H21.3c-5.2 0-9.5-4.3-9.5-9.5v-.1c0-5.2 4.3-9.5 9.5-9.5h57.3c5.3 0 9.6 4.2 9.6 9.5zm0-24.2v.1c0 5.2-4.3 9.5-9.5 9.5H21.3c-5.2 0-9.5-4.3-9.5-9.5v-.1c0-5.2 4.3-9.5 9.5-9.5h57.3c5.3 0 9.6 4.3 9.6 9.5zm0-24c0 5.2-4.3 9.5-9.5 9.5H21.3c-5.2 0-9.5-4.3-9.5-9.5v-.1c0-5.2 4.3-9.5 9.5-9.5h57.3c5.2 0 9.5 4.3 9.5 9.5v.1zm-12.2 0c0 1.4-1.1 2.5-2.5 2.5H49.1c-1.4 0-2.5-1.1-2.5-2.5s1.1-2.5 2.5-2.5h24.3c1.5 0 2.6 1.1 2.6 2.5zm-44 0c0 1.5-1.2 2.8-2.8 2.8s-2.8-1.2-2.8-2.8c0-1.5 1.2-2.8 2.8-2.8s2.8 1.3 2.8 2.8zM46.6 50c0-1.4 1.1-2.5 2.5-2.5h24.3c1.4 0 2.5 1.1 2.5 2.5s-1.1 2.5-2.5 2.5H49.1c-1.3 0-2.5-1.1-2.5-2.5zm-20.1 0c0-1.5 1.2-2.8 2.8-2.8S32 48.5 32 50c0 1.5-1.2 2.8-2.8 2.8s-2.7-1.3-2.7-2.8zm20.1 24.1c0-1.4 1.1-2.5 2.5-2.5h24.3c1.4 0 2.5 1.1 2.5 2.5s-1.1 2.5-2.5 2.5H49.1c-1.3 0-2.5-1.1-2.5-2.5zm-20.1 0c0-1.5 1.2-2.8 2.8-2.8s2.8 1.2 2.8 2.8c0 1.5-1.2 2.8-2.8 2.8s-2.8-1.3-2.8-2.8z"/>
</svg>
