<svg xmlns="http://www.w3.org/2000/svg" viewBox="0 0 100 54">
    <style xmlns="http://www.w3.org/1999/xhtml" id="VMst0.007871729398807092">
        <![CDATA[]]>
    </style>
    <g fill="none">
        <path fill="#6CD591" d="M0 5.096C0 1.81 2.964-.441 6.462.073l45.64 5.962c2.05.301 3.685 2.512 3.685 4.919v6.23c-3.846 2.576-6.366 6.89-6.366 11.776 0 4.932 2.459 9.208 6.366 11.776v2.74c0 2.407-1.634 4.617-3.686 4.919l-40.498 5.532c-3.499.515-6.462-1.737-6.462-5.023Zm19.68 5.726h-6.019v7.884H9.842v4.556h3.82v8.76c-.177 5.506 1.985 7.97 6.953 8.017h4.636v-4.556h-2.38c-2.696-.131-3.28-.92-3.19-4.468v-7.753h7.4l6.853 16.776h6.469l9.434-21.332h-6.38l-6.109 14.675-5.571-14.675H19.68v-7.884Z"/>
        <path fill="#FFF" d="M88.61 18.277c3.908 0 6.513.964 8.49 3.154 1.617 1.752 2.47 4.337 2.47 7.227 0 4.205-1.706 7.49-4.806 9.374-2.022 1.227-3.773 1.577-7.727 1.577h-9.793V10.392h6.02v7.885h5.346Zm-5.346 16.777h4.447c3.549 0 5.705-2.366 5.705-6.22 0-4.03-1.886-6.002-5.705-6.002h-4.447v12.222Zm-15.25-24.662h6.02V39.61H63.655c-4.222 0-6.244-.613-8.4-2.496-2.202-1.971-3.325-4.775-3.325-8.323 0-3.68 1.213-6.483 3.774-8.542 1.617-1.314 3.819-1.97 6.649-1.97h5.66v-7.886Zm0 12.44h-4.358c-3.504 0-5.615 2.235-5.615 5.958 0 3.898 2.156 6.264 5.615 6.264h4.358V22.833Z"/>
    </g>
</svg>
