<svg width="24" height="24" viewBox="0 0 24 24" fill="none" xmlns="http://www.w3.org/2000/svg">
    <g id="icon-tv-24x24">
        <path id="text-stand-shape"
            d="M13 8.5L15 12.5L17 8.5M7.25 8.5L8.99999 8.5M10.75 8.5L8.99999 8.5M8.99999 8.5V12.5M9.49999 21L12 17L14.5 21"
            stroke="#b4befe" stroke-width="1.5" stroke-linecap="round" stroke-linejoin="round" />
        <path id="tv-shape"
            d="M17 4H7C4.79086 4 3 5.79086 3 8V13C3 15.2091 4.79086 17 7 17H7.25C7.38807 17 7.5 17.1119 7.5 17.25C7.5 17.3881 7.38807 17.5 7.25 17.5H7C4.51472 17.5 2.5 15.4853 2.5 13V8C2.5 5.51472 4.51472 3.5 7 3.5H17C19.4853 3.5 21.5 5.51472 21.5 8V13C21.5 15.4853 19.4853 17.5 17 17.5H16.75C16.6119 17.5 16.5 17.3881 16.5 17.25C16.5 17.1119 16.6119 17 16.75 17H17C19.2091 17 21 15.2091 21 13V8C21 5.79086 19.2091 4 17 4Z"
            stroke="#b4befe" />
    </g>
</svg>