<svg width="501.296" height="99.688" xmlns="http://www.w3.org/2000/svg">
    <path d="M86.152 42.824q1.224 0 2.04.816.816.816.816 1.904v94.112q0 1.088-.816 1.904-.816.816-2.04.816H70.104q-1.088 0-1.904-.816-.816-.816-.816-1.904V103.48H25.632v36.176q0 1.088-.816 1.904-.816.816-1.904.816H6.864q-1.088 0-1.904-.816-.816-.816-.816-1.904V45.544q0-1.088.816-1.904.816-.816 1.904-.816h16.048q.952 0 1.904.68.816.816.816 2.04V81.72h41.752V45.544q0-1.088.816-1.904.816-.816 1.904-.816zm56.577 0q10.335 0 19.311 3.944 9.113 3.944 15.777 10.744 6.8 6.664 10.744 15.776 3.944 8.976 3.944 19.312t-3.944 19.448q-3.944 8.976-10.744 15.776-6.664 6.8-15.776 10.744-8.976 3.944-19.312 3.944h-39.985q-1.224 0-2.04-.816-.816-.952-.816-2.04V45.544q0-1.088.816-1.904.816-.816 2.04-.816zm.271 77.928q5.848 0 10.88-2.176 5.168-2.312 8.976-6.12 3.808-3.808 5.984-8.84 2.312-5.168 2.312-11.016t-2.311-10.88q-2.177-5.168-5.985-8.976-3.808-3.808-8.976-5.984-5.032-2.312-10.88-2.312h-21.352v56.304Zm137.36-47.6q0 5.576-1.903 10.608-1.768 4.896-5.304 9.112 7.208 8.432 7.208 19.72 0 5.44-1.904 10.472-1.768 4.896-5.168 8.976-3.264 3.944-7.888 6.664-4.488 2.72-9.792 3.672h-55.76q-1.088 0-2.04-.816-.816-.816-.816-1.904V45.544q0-1.088.816-1.904.952-.816 2.04-.816h50.184q6.256 0 11.696 2.448 5.576 2.312 9.656 6.528 4.216 4.08 6.528 9.656 2.448 5.44 2.448 11.696zm-30.463 8.568q3.536 0 5.984-2.448 2.584-2.584 2.584-6.12t-2.584-6.12q-2.448-2.584-5.984-2.584h-31.28V81.72zm-31.28 39.44h31.28q3.536 0 5.984-2.448 2.584-2.584 2.584-6.12t-2.584-6.12q-2.448-2.584-5.984-2.584h-31.28zm104.176-.952q1.088 0 1.904.816.816.816.816 1.904v16.728q0 1.088-.816 1.904-.816.816-1.904.816h-31.824q-1.224 0-2.04-.816-.816-.816-.816-1.904v-16.728q0-1.088.816-1.904.816-.816 2.04-.816H296V64.992h-5.032q-1.224 0-2.04-.816-.816-.816-.816-1.904V45.544q0-1.088.816-1.904.816-.816 2.04-.816h31.824q1.088 0 1.904.816.816.816.816 1.904v16.728q0 1.088-.816 1.904-.816.816-1.904.816h-5.032v55.216zm94.656-77.384q1.088 0 1.904.816.816.816.816 1.904v16.184q0 1.088-.816 1.904-.816.816-1.904.816h-28.832v75.208q0 1.088-.816 2.04-.816.816-1.904.816h-16.184q-1.224 0-2.04-.816-.816-.952-.816-2.04V64.448h-29.24q-1.088 0-1.904-.816-.816-.816-.816-1.904V45.544q0-1.088.816-1.904.816-.816 1.904-.816zm57.664 38.896q6.256 0 11.696 2.448 5.576 2.312 9.656 6.528 4.216 4.08 6.528 9.656 2.448 5.44 2.448 11.696 0 6.256-2.448 11.832-2.312 5.44-6.528 9.656-4.08 4.08-9.656 6.528-5.44 2.312-11.696 2.312h-20.264q-5.576 0-10.608-1.768-5.032-1.904-8.976-5.168-3.944-3.4-6.664-8.024-2.72-4.624-3.672-10.064-.136-1.088.544-2.312.952-.952 2.176-.952h17.272q1.768 0 2.448 1.632 1.088 2.312 3.128 3.672 2.176 1.36 4.76 1.36h19.448q3.536 0 5.984-2.584 2.584-2.584 2.584-6.12t-2.584-5.984q-2.448-2.584-5.984-2.584h-19.176q-6.256 0-11.832-2.312-5.576-2.448-9.792-6.528-4.08-4.216-6.528-9.656-2.312-5.576-2.312-11.832 0-6.256 2.312-11.696 2.448-5.576 6.528-9.656 4.216-4.216 9.792-6.528 5.576-2.448 11.832-2.448h16.592q5.576 0 10.472 1.904 5.032 1.768 8.976 5.168 4.08 3.264 6.8 7.888 2.72 4.624 3.672 10.064.136 1.224-.68 2.312-.952.952-2.04.952h-17.272q-1.904 0-2.584-1.632-1.088-2.312-3.264-3.672-2.04-1.36-4.488-1.36h-15.776q-3.536 0-6.12 2.584t-2.584 6.12q0 3.536 2.584 6.12 2.584 2.448 6.12 2.448z" style="-inkscape-font-specification:'Stampbor Rounded, Normal';fill:#fff" aria-label="HDBITS" transform="translate(-4.144 -42.824)"/>
</svg>
