<svg xmlns="http://www.w3.org/2000/svg" viewBox="0 0 514.595 122.876">
    <style xmlns="http://www.w3.org/1999/xhtml" id="VMst0.6708844942531191">
        <![CDATA[]]>
    </style>
    <path d="M86.632 0a2.023 2.023 0 0 0-2.023 2.023v48.616c0 1.117.907 2.022 2.023 2.022h2.273a2.022 2.022 0 0 0 2.023-2.022V8.519c0-1.119.907-2.026 2.024-2.026h1.923c1.117 0 2.022.907 2.022 2.026v112.333c0 1.117.906 2.024 2.023 2.024h2.099a2.022 2.022 0 0 0 2.021-2.024V2.022A2.021 2.021 0 0 0 101.019 0zM73.993 0a2.023 2.023 0 0 0-2.024 2.023v41.944a2.022 2.022 0 0 1-2.021 2.024H20.455a2.023 2.023 0 0 1-2.023-2.024V13.608a2.023 2.023 0 0 0-2.023-2.023h-2.274a2.023 2.023 0 0 0-2.023 2.023v36.504c0 1.116.905 2.021 2.023 2.021h61.957a2.022 2.022 0 0 0 2.023-2.021V2.022A2.022 2.022 0 0 0 76.092 0zM2.023 0A2.022 2.022 0 0 0 0 2.023v118.829c0 1.117.905 2.024 2.023 2.024H28.52a2.023 2.023 0 0 0 2.023-2.024V84.525a2.023 2.023 0 0 0-2.023-2.024h-2.449a2.024 2.024 0 0 0-2.023 2.024v29.832a2.023 2.023 0 0 1-2.022 2.024H8.343a2.025 2.025 0 0 1-2.024-2.024V8.52c0-1.119.906-2.026 2.024-2.026h13.684c1.117 0 2.022.907 2.022 2.026v30.008c0 1.117.906 2.021 2.023 2.021h2.45a2.021 2.021 0 0 0 2.022-2.021V2.023A2.022 2.022 0 0 0 28.521 0zm115.5.176a2.021 2.021 0 0 0-2.023 2.023v2.278c0 1.115.903 2.02 2.016 2.024l49.416.17c16.324 0 32.475 11.057 41.601 28.261 4.39 8.601 6.671 17.553 6.671 26.505 0 18.959-8.952 36.162-24.925 46.695-7.9 5.44-15.798 8.073-23.347 8.073h-43.09a2.025 2.025 0 0 1-2.023-2.024V19.76c0-1.121.91-2.027 2.032-2.024l41.677.168c12.815 0 25.276 8.425 32.475 22.293 3.51 6.847 5.265 14.043 5.265 21.24 0 10.708-4.564 21.767-12.813 30.368-7.724 7.724-17.028 12.64-24.752 12.64H147.72c-1.12 0-2.025-.91-2.024-2.029l.167-65.28a2.024 2.024 0 0 0-2.024-2.028h-2.096a2.022 2.022 0 0 0-2.023 2.019l-.172 70.477v1.136c0 1.117.905 2.024 2.023 2.024h24.132c9.656 0 20.889-5.441 29.492-14.57 9.302-10.006 14.392-22.294 14.392-34.757 0-12.638-4.915-25.277-13.867-35.108-9.656-9.653-20.187-14.918-30.192-14.918h-48.005a2.021 2.021 0 0 0-2.023 2.022v107.243c0 1.117.905 2.024 2.023 2.024h49.409c12.639 0 26.33-6.495 36.687-17.553 11.41-11.763 17.73-27.384 17.73-43.71 0-16.325-5.969-31.773-17.202-43.709C193.613 6.671 180.099.176 166.932.176zm113.345.525a2.501 2.501 0 0 0-2.501 2.502V120.2c0 1.38 1.12 2.5 2.501 2.5h49.107c25.452 0 40.901-14.043 40.901-37.916 0-8.507-1.984-15.641-6.088-21.545a2.406 2.406 0 0 1-.1-2.615c3.493-5.913 5.31-13.165 5.31-21.48 0-24.4-14.394-38.268-39.146-38.268h-38.048a2.502 2.502 0 0 0-2.501 2.501v47.838a2.5 2.5 0 0 0 2.501 2.498l44.7-.172c2.717-.862 5.561-3.542 6.165-4.68 3.304-6.202 3.767-16.088-2.461-22.005-2.281-2.105-6.143-3.335-9.652-3.335H254.74c-1.38 0-2.5 1.12-2.5 2.502v13.43a2.5 2.5 0 0 0 2.5 2.499h1.319c1.381 0 2.5-1.119 2.5-2.499v-7.288a2.501 2.501 0 0 1 2.501-2.501h20.496c5.09 0 8.6 3.336 8.6 9.48 0 5.441-2.808 8.25-8.6 8.25h-32.61c-1.38 0-2.5-1.12-2.5-2.5V9.695a2.5 2.5 0 0 1 2.5-2.5h31.029c21.768 0 33.878 11.06 33.878 31.948 0 6.81-1.389 12.75-4.34 18.167-.032.06-.066.12-.104.178l-1.578 2.524a1.88 1.88 0 0 1-.284.358 2.5 2.5 0 0 0 0 3.537l.46.461c.036.034.069.071.101.108l3.288 3.806c2.107 2.633 3.16 8.076 3.16 16.501 0 20.539-12.287 31.597-34.581 31.597h-42.788a2.5 2.5 0 0 1-2.5-2.501V3.203A2.502 2.502 0 0 0 232.185.7zm24.048 11.587a2.501 2.501 0 0 0-2.501 2.5v1.317a2.502 2.502 0 0 0 2.501 2.502h29.272c5.793 0 12.112 3.686 15.623 9.654a20.921 20.921 0 0 1 2.458 9.83c0 12.112-7.374 20.713-18.609 20.713h-40.68a2.5 2.5 0 0 0-2.5 2.501v1.319a2.5 2.5 0 0 0 2.5 2.5h40.68c11.763 0 19.31 8.075 19.31 20.89 0 7.197-2.983 12.462-9.127 16.149-2.984 1.754-6.144 2.633-9.655 2.633h-35.241c-1.38 0-2.5-1.12-2.5-2.501V79.56a2.5 2.5 0 0 1 2.5-2.499h32.609c6.143 0 9.127 2.808 9.127 8.25 0 5.617-2.984 8.425-9.127 8.425H261.06a2.501 2.501 0 0 1-2.501-2.5v-6.585a2.5 2.5 0 0 0-2.5-2.5h-1.319a2.5 2.5 0 0 0-2.5 2.5v12.905a2.5 2.5 0 0 0 2.5 2.499h26.816c6.844 0 11.41-2.456 13.867-7.548 1.052-1.93 1.58-4.388 1.58-7.196 0-9.128-6.144-14.746-15.447-14.746h-38.752a2.502 2.502 0 0 0-2.501 2.502v35.724a2.5 2.5 0 0 0 2.501 2.498h41.384c6.099 0 11.855-2.248 17.264-6.921.073-.065.148-.136.219-.207 5.022-5.069 7.62-11.176 7.62-18.148 0-8.721-2.775-15.537-8.495-20.617a2.47 2.47 0 0 0-.227-.183l-1.54-1.125c-1.338-.979-1.38-2.976-.062-3.981 6.18-4.704 9.796-12.356 9.796-22.016 0-9.83-4.388-18.255-11.76-22.644-3.687-2.106-8.076-3.159-12.815-3.159zM129.279 23.864a2.025 2.025 0 0 0-2.015 2.027l.168 83.206a2.023 2.023 0 0 0 2.023 2.019h2.277a2.026 2.026 0 0 0 2.024-2.024V32.028c0-1.113.899-2.016 2.01-2.023l29.235-.164c7.899 0 18.082 7.022 22.995 16.324 2.459 4.74 3.685 9.655 3.685 15.098 0 7.197-3.333 15.27-8.774 21.416-5.442 6.142-12.112 9.828-17.906 9.828h-10.44a2.025 2.025 0 0 0-2.024 2.024v2.273c0 1.117.907 2.024 2.024 2.024h10.44c9.655 0 21.942-8.25 28.262-20.012 3.158-5.793 4.74-11.761 4.74-17.553 0-12.464-6.495-25.454-16.852-32.475-5.091-3.336-10.532-5.09-16.15-5.09zm246.212 5.081a2.023 2.023 0 0 0-2.023 2.024v9.756c0 1.118.905 2.023 2.023 2.023h53.168a2.023 2.023 0 0 0 2.024-2.023v-.777a2.024 2.024 0 0 0-2.024-2.024h-48.344a2.022 2.022 0 0 1-2.023-2.023v-.106c0-1.119.905-2.026 2.023-2.026h52.901c1.116 0 2.023.907 2.023 2.026v8.681a2.024 2.024 0 0 1-2.023 2.024h-27.98a2.021 2.021 0 0 0-2.021 2.023v63.485c0 1.117.904 2.024 2.021 2.024h.779a2.025 2.025 0 0 0 2.024-2.024V53.347c0-1.118.904-2.024 2.021-2.024h27.979a2.023 2.023 0 0 0 2.025-2.022V30.97a2.026 2.026 0 0 0-2.025-2.024zm96.465 1.475c-7.905 2.145-13.803 6.97-17.687 14.605l-.402.939c-1.608 3.885-2.412 7.772-2.412 11.657 0 4.155.804 7.771 2.412 10.988 4.153 8.307 12.193 14.203 24.252 17.82l1.609.536c5.493 1.743 8.71 3.619 9.915 5.762l.133.269c.27.401.403.937.403 1.608 0 1.205-.134 2.008-.536 2.679-.939 2.144-3.216 3.217-6.834 3.217-5.761 0-14.069-2.95-20.501-7.103l-.3-.18a2.025 2.025 0 0 0-2.761.671l-9.659 15.585c-.595.96-.29 2.22.68 2.8l.25.151c9.513 6.432 22.107 10.452 32.291 10.452 3.35 0 6.432-.403 9.246-1.207 7.905-2.278 13.801-7.101 17.686-14.738l.538-.938c1.608-4.153 2.41-8.04 2.41-11.658 0-3.055-1.053-7.035-3.033-12.066a2.867 2.867 0 0 0-.11-.245c-3.642-7.177-11.393-12.632-23.12-16.363l-1.875-.537c-3.618-1.205-6.164-2.277-7.503-3.348-1.148-.94-2.052-1.717-2.587-2.33a1.959 1.959 0 0 1-.446-.954l-.143-.776a2.363 2.363 0 0 1-.037-.465c.072-2.69 1.381-4.607 2.944-5.258.805-.401 2.278-.536 4.422-.536 5.763 0 14.068 2.95 20.502 7.102l.308.186a2.024 2.024 0 0 0 2.754-.658l5.052-8.047a2.025 2.025 0 0 0-.721-2.84l-.292-.164c-8.173-5.36-19.296-9.112-27.47-9.112-3.615 0-5.894.268-7.1.939-5.494 1.606-9.647 5.092-12.327 10.316-1.207 2.278-1.742 4.958-1.742 8.309 0 2.545.535 4.957 1.608 7.235 2.814 6.029 9.11 10.45 18.892 13.398l1.687.52.107.036L486.025 80c1.875.669 4.02 1.741 6.566 3.216 4.286 2.545 6.432 6.161 6.432 10.986 0 2.68-.671 5.226-1.876 7.504-2.815 4.958-7.639 7.504-14.338 7.504-4.137 0-10.03-1.524-17.685-4.462a2.025 2.025 0 0 0-2.483.858l-1.405 2.396-.133.27c7.637 3.885 14.873 5.761 21.84 5.761 7.905 0 14.605-3.216 18.224-9.38 1.741-3.081 2.68-6.565 2.68-10.585 0-7.906-4.02-12.863-9.38-15.676-2.814-1.475-6.299-2.948-10.72-4.423l-1.74-.535c-8.444-2.548-13.668-6.03-15.812-10.721-.806-1.608-1.207-3.35-1.207-5.359 0-2.546.401-4.554 1.341-6.297 2.106-3.821 5.122-6.345 9.043-7.577.132-.04.27-.07.408-.087l5-.625c.1-.012.203-.019.305-.018 6.515.031 13.595 2.087 21.236 6.064 1.046.544 1.383 1.884.748 2.878a2.032 2.032 0 0 1-2.584.728c-7.957-3.767-14.378-5.651-19.15-5.651-2.544 0-4.02.133-4.69.536-2.948.803-5.09 2.545-6.565 5.36l-.133.267c-.672 1.206-.938 2.814-.938 4.824 0 1.474.266 2.546.668 3.216 1.743 3.618 6.299 6.564 13.535 8.71l1.74.536 3.272 1.047c.052.016.093.03.143.05.732.3 2.824 1.218 6.281 2.882a2.48 2.48 0 0 1 .168.085c5.181 2.942 8.907 6.678 11.04 11.076 1.34 2.68 2.01 5.627 2.01 8.844 0 3.886-.67 7.235-2.145 10.05l-.266.536c-3.056 5.976-7.82 10.11-14.428 12.138a2.462 2.462 0 0 1-.37.082c-4.834.653-7.45 1.045-7.848 1.045-6.549 0-15.361-2.533-23.784-6.4a2 2 0 0 1-.13-.067l-1.792-.958a2.025 2.025 0 0 1-.767-2.847l4.57-7.404a2.023 2.023 0 0 1 2.678-.72l1.999 1.07c.049.027.101.053.153.075 6.533 2.926 12.267 4.387 17.073 4.387 2.412 0 3.886-.133 4.556-.536 3.082-.804 5.226-2.545 6.566-5.225l.134-.267c.67-1.207.938-2.681.938-4.556 0-.939-.268-2.01-.804-3.35l-.268-.535c-1.743-3.619-5.628-6.031-12.73-8.31l-1.34-.401-.402-.133c-10.854-3.216-17.82-8.307-21.171-15.411-1.339-2.68-2.008-5.627-2.008-8.843 0-3.349.67-6.565 2.008-9.916l.27-.534c3.051-5.976 7.817-10.11 14.423-12.14.119-.038.248-.064.371-.08 4.835-.655 7.45-1.047 7.85-1.047 8.67 0 18.673 3.397 29.898 10.076.956.57 2.192.28 2.773-.668l.423-.69a2.029 2.029 0 0 0-.695-2.806c-12.254-7.196-22.93-10.736-32.266-10.736-4.152 0-7.236.403-9.379 1.34m-111.208-1.34a2.024 2.024 0 0 0-2.023 2.024v84.924a2.023 2.023 0 0 1-2.022 2.024h-9.49a2.022 2.022 0 0 1-2.021-2.024v-80.1c0-1.117.904-2.024 2.021-2.024h.378c1.117 0 2.022.907 2.022 2.024v75.947c0 1.117.906 2.022 2.023 2.022h.779a2.022 2.022 0 0 0 2.022-2.022V31.104a2.023 2.023 0 0 0-2.022-2.024H342.39a2.022 2.022 0 0 0-2.022 2.024v89.748c0 1.117.904 2.024 2.022 2.024h19.134a2.025 2.025 0 0 0 2.024-2.024V31.104a2.025 2.025 0 0 0-2.024-2.024zm14.743 17.42a2.022 2.022 0 0 0-2.023 2.023v.778c0 1.118.905 2.022 2.023 2.022h16.722c1.118 0 2.026.906 2.026 2.024v67.505c0 1.117.904 2.024 2.021 2.024h19a2.024 2.024 0 0 0 2.023-2.024v-63.35a2.023 2.023 0 0 0-2.023-2.025h-.777a2.023 2.023 0 0 0-2.023 2.024v58.394a2.022 2.022 0 0 1-2.023 2.022h-9.354a2.021 2.021 0 0 1-2.022-2.022V48.523a2.025 2.025 0 0 0-2.025-2.023zM13.96 58.453a2.025 2.025 0 0 0-2.024 2.024v2.098c0 1.117.907 2.021 2.024 2.021h68.627c1.117 0 2.022.907 2.022 2.025v47.736a2.023 2.023 0 0 1-2.022 2.024h-2.45a2.023 2.023 0 0 1-2.022-2.024V72.413a2.022 2.022 0 0 0-2.023-2.022H13.96a2.023 2.023 0 0 0-2.024 2.022v37.731c0 1.117.907 2.023 2.024 2.023h2.45a2.022 2.022 0 0 0 2.022-2.023V78.908c0-1.117.905-2.024 2.023-2.024h49.493c1.117 0 2.021.907 2.021 2.024v41.944c0 1.117.907 2.024 2.024 2.024h14.912a2.023 2.023 0 0 0 2.023-2.024V60.477a2.023 2.023 0 0 0-2.023-2.024z"/>
</svg>
