<svg xmlns:x="http://ns.adobe.com/Extensibility/1.0/" xmlns:i="http://ns.adobe.com/AdobeIllustrator/10.0/" xmlns:graph="http://ns.adobe.com/Graphs/1.0/" xmlns="http://www.w3.org/2000/svg" xmlns:xlink="http://www.w3.org/1999/xlink" version="1.1" x="0px" y="0px" viewBox="0 0 100 125" enable-background="new 0 0 100 100" xml:space="preserve"><metadata><sfw xmlns="http://ns.adobe.com/SaveForWeb/1.0/"><slices/><sliceSourceBounds width="1449.1" height="1429.6" y="-1445.1" x="0.4" bottomLeftOrigin="true"/></sfw></metadata><path d="M93.2,25.9v-0.1c0-8-6.5-14.5-14.5-14.5H21.3c-8,0-14.5,6.5-14.5,14.5v0.1c0,5,2.5,9.4,6.4,12c-3.8,2.6-6.4,7-6.4,12v0.1  c0,5,2.5,9.4,6.4,12c-3.8,2.6-6.4,7-6.4,12v0.1c0,8,6.5,14.5,14.5,14.5h57.3c8,0,14.5-6.5,14.5-14.5v-0.1c0-5-2.5-9.4-6.4-12  c3.8-2.6,6.4-7,6.4-12v-0.1c0-5-2.5-9.4-6.4-12C90.6,35.3,93.2,30.9,93.2,25.9z M88.2,74.1v0.1c0,5.2-4.3,9.5-9.5,9.5H21.3  c-5.2,0-9.5-4.3-9.5-9.5v-0.1c0-5.2,4.3-9.5,9.5-9.5h57.3C83.9,64.6,88.2,68.8,88.2,74.1z M88.2,49.9v0.1c0,5.2-4.3,9.5-9.5,9.5  H21.3c-5.2,0-9.5-4.3-9.5-9.5v-0.1c0-5.2,4.3-9.5,9.5-9.5h57.3C83.9,40.4,88.2,44.7,88.2,49.9z M88.2,25.9c0,5.2-4.3,9.5-9.5,9.5  H21.3c-5.2,0-9.5-4.3-9.5-9.5v-0.1c0-5.2,4.3-9.5,9.5-9.5h57.3c5.2,0,9.5,4.3,9.5,9.5V25.9z M76,25.9c0,1.4-1.1,2.5-2.5,2.5H49.1  c-1.4,0-2.5-1.1-2.5-2.5s1.1-2.5,2.5-2.5h24.3C74.9,23.4,76,24.5,76,25.9z M32,25.9c0,1.5-1.2,2.8-2.8,2.8s-2.8-1.2-2.8-2.8  c0-1.5,1.2-2.8,2.8-2.8S32,24.4,32,25.9z M46.6,50c0-1.4,1.1-2.5,2.5-2.5h24.3c1.4,0,2.5,1.1,2.5,2.5s-1.1,2.5-2.5,2.5H49.1  C47.8,52.5,46.6,51.4,46.6,50z M26.5,50c0-1.5,1.2-2.8,2.8-2.8S32,48.5,32,50c0,1.5-1.2,2.8-2.8,2.8S26.5,51.5,26.5,50z M46.6,74.1  c0-1.4,1.1-2.5,2.5-2.5h24.3c1.4,0,2.5,1.1,2.5,2.5s-1.1,2.5-2.5,2.5H49.1C47.8,76.6,46.6,75.5,46.6,74.1z M26.5,74.1  c0-1.5,1.2-2.8,2.8-2.8s2.8,1.2,2.8,2.8c0,1.5-1.2,2.8-2.8,2.8S26.5,75.6,26.5,74.1z"/></svg>