<svg xmlns="http://www.w3.org/2000/svg" version="1.1" viewBox="-5.0 -10.0 110.0 135.0">
 <path d="m93.789 42.824-19.629 19.133 4.6328 27.016c0.20312 1.1719-0.28125 2.3594-1.2422 3.0547-0.54688 0.39453-1.1914 0.59766-1.8359 0.59766-0.49609 0-0.99609-0.11719-1.457-0.35938l-24.258-12.754-24.258 12.754c-1.0508 0.55078-2.3242 0.46484-3.293-0.23828-0.96094-0.69922-1.4453-1.8828-1.2422-3.0547l4.6328-27.016-19.629-19.133c-0.85156-0.83203-1.1562-2.0703-0.78906-3.2031 0.37109-1.1289 1.3477-1.957 2.5234-2.1289l27.125-3.9414 12.129-24.578c1.0508-2.1328 4.5547-2.1328 5.6016 0l12.129 24.578 27.125 3.9414c1.1797 0.17187 2.1562 0.99609 2.5234 2.1289 0.36719 1.1328 0.0625 2.3711-0.78906 3.2031z"/></svg>